# Made in Blockbench 4.7.4
mtllib fumoreimu.mtl

o cube
v 0.125 -0.140625 -0.125
v -0.125 -0.140625 -0.125
v 0.125 -0.390625 -0.125
v -0.125 -0.390625 -0.125
v -0.125 -0.140625 0.0625
v 0.125 -0.140625 0.0625
v -0.125 -0.390625 0.0625
v 0.125 -0.390625 0.0625
vt 0.28125 0.46875
vt 0.375 0.46875
vt 0.375 0.375
vt 0.28125 0.375
vt 0 0.46875
vt 0.09375 0.46875
vt 0.09375 0.375
vt 0 0.375
vt 0.1875 0.46875
vt 0.09375 0.46875
vt 0.09375 0.375
vt 0.1875 0.375
vt 0.1875 0.46875
vt 0.28125 0.46875
vt 0.28125 0.375
vt 0.1875 0.375
vt 0 0.5390625
vt 0.09375 0.5390625
vt 0.09375 0.46875
vt 0 0.46875
vt 0 0.375
vt 0.09375 0.375
vt 0.09375 0.3046875
vt 0 0.3046875
vn -1 0 -2.220446049250313e-16
vn 2.220446049250313e-16 0 -1
vn 1 0 2.220446049250313e-16
vn -2.220446049250313e-16 0 1
vn 0 1 0
vn 0 -1 0
usemtl m_e0d20437-4cfb-e04e-0661-a9470622064c
f 4/4/1 7/3/1 5/2/1 2/1/1
f 3/8/2 4/7/2 2/6/2 1/5/2
f 8/12/3 3/11/3 1/10/3 6/9/3
f 7/16/4 8/15/4 6/14/4 5/13/4
f 6/20/5 1/19/5 2/18/5 5/17/5
f 7/24/6 4/23/6 3/22/6 8/21/6
o cube
v 0.1875 -0.35720258689851536 0.13785463912071483
v 0.1875 -0.32778042600057344 -0.2359893610292082
v 0.1875 -0.4818172536151563 0.12804725215473423
v 0.1875 -0.45239509271721445 -0.2457967479951888
v -0.1875 -0.32778042600057344 -0.2359893610292082
v -0.1875 -0.35720258689851536 0.13785463912071483
v -0.1875 -0.45239509271721445 -0.2457967479951888
v -0.1875 -0.4818172536151563 0.12804725215473423
vt 0.640625 0.28125
vt 0.5 0.28125
vt 0.5 0.234375
vt 0.640625 0.234375
vt 0.5 0.421875
vt 0.5 0.28125
vt 0.453125 0.28125
vt 0.453125 0.421875
vt 0.640625 0.28125
vt 0.5 0.28125
vt 0.5 0.234375
vt 0.640625 0.234375
vt 0.640625 0.28125
vt 0.640625 0.421875
vt 0.6875 0.421875
vt 0.6875 0.28125
vt 0.5 0.28125
vt 0.640625 0.28125
vt 0.640625 0.421875
vt 0.5 0.421875
vt 0.6875 0.421875
vt 0.828125 0.421875
vt 0.828125 0.28125
vt 0.6875 0.28125
vn 0 0.07845909572784494 -0.996917333733128
vn 1 0 0
vn 0 -0.07845909572784494 0.996917333733128
vn -1 0 0
vn 0 0.996917333733128 0.07845909572784494
vn 0 -0.996917333733128 -0.07845909572784494
usemtl m_e0d20437-4cfb-e04e-0661-a9470622064c
f 12/28/7 15/27/7 13/26/7 10/25/7
f 11/32/8 12/31/8 10/30/8 9/29/8
f 16/36/9 11/35/9 9/34/9 14/33/9
f 15/40/10 16/39/10 14/38/10 13/37/10
f 14/44/11 9/43/11 10/42/11 13/41/11
f 15/48/12 12/47/12 11/46/12 16/45/12
o cube
v 0.32978515024712984 -0.19299004036840955 0.03125
v 0.32978515024712984 -0.19299004036840955 -0.09375
v 0.3080791280387635 -0.3160910094949355 0.03125
v 0.3080791280387635 -0.3160910094949355 -0.09375
v 0.08358321199407781 -0.14957799595167692 -0.09375
v 0.08358321199407781 -0.14957799595167692 0.03125
v 0.06187718978571144 -0.27267896507820294 -0.09375
v 0.06187718978571144 -0.27267896507820294 0.03125
vt 0.171875 0.53125
vt 0.265625 0.53125
vt 0.265625 0.484375
vt 0.171875 0.484375
vt 0.125 0.53125
vt 0.171875 0.53125
vt 0.171875 0.484375
vt 0.125 0.484375
vt 0.265625 0.625
vt 0.171875 0.625
vt 0.171875 0.578125
vt 0.265625 0.578125
vt 0 1
vt 0 1
vt 0 1
vt 0 1
vt 0.265625 0.671875
vt 0.171875 0.671875
vt 0.171875 0.625
vt 0.265625 0.625
vt 0.265625 0.578125
vt 0.171875 0.578125
vt 0.171875 0.53125
vt 0.265625 0.53125
vn 0 0 -1
vn 0.984807753012208 -0.17364817766693033 0
vn 0 0 1
vn -0.984807753012208 0.17364817766693033 0
vn 0.17364817766693033 0.984807753012208 0
vn -0.17364817766693033 -0.984807753012208 0
usemtl m_e0d20437-4cfb-e04e-0661-a9470622064c
f 20/52/13 23/51/13 21/50/13 18/49/13
f 19/56/14 20/55/14 18/54/14 17/53/14
f 24/60/15 19/59/15 17/58/15 22/57/15
f 23/64/16 24/63/16 22/62/16 21/61/16
f 22/68/17 17/67/17 18/66/17 21/65/17
f 23/72/18 20/71/18 19/70/18 24/69/18
o cube
v -0.08358321199407776 -0.14957799595167692 0.03125
v -0.08358321199407776 -0.14957799595167692 -0.09375
v -0.06187718978571144 -0.27267896507820294 0.03125
v -0.06187718978571144 -0.27267896507820294 -0.09375
v -0.3297851502471298 -0.19299004036840955 -0.09375
v -0.3297851502471298 -0.19299004036840955 0.03125
v -0.3080791280387635 -0.3160910094949355 -0.09375
v -0.3080791280387635 -0.3160910094949355 0.03125
vt 0.28125 0.53125
vt 0.375 0.53125
vt 0.375 0.484375
vt 0.28125 0.484375
vt 0 1
vt 0 1
vt 0 1
vt 0 1
vt 0.375 0.625
vt 0.28125 0.625
vt 0.28125 0.578125
vt 0.375 0.578125
vt 0.375 0.53125
vt 0.421875 0.53125
vt 0.421875 0.484375
vt 0.375 0.484375
vt 0.375 0.671875
vt 0.28125 0.671875
vt 0.28125 0.625
vt 0.375 0.625
vt 0.375 0.578125
vt 0.28125 0.578125
vt 0.28125 0.53125
vt 0.375 0.53125
vn 0 0 -1
vn 0.984807753012208 0.17364817766693033 0
vn 0 0 1
vn -0.984807753012208 -0.17364817766693033 0
vn -0.17364817766693033 0.984807753012208 0
vn 0.17364817766693033 -0.984807753012208 0
usemtl m_e0d20437-4cfb-e04e-0661-a9470622064c
f 28/76/19 31/75/19 29/74/19 26/73/19
f 27/80/20 28/79/20 26/78/20 25/77/20
f 32/84/21 27/83/21 25/82/21 30/81/21
f 31/88/22 32/87/22 30/86/22 29/85/22
f 30/92/23 25/91/23 26/90/23 29/89/23
f 31/96/24 28/95/24 27/94/24 32/93/24
o cube
v 0.15625 -0.375 0.0625
v 0.15625 -0.375 -0.3125
v 0.15625 -0.5 0.0625
v 0.15625 -0.5 -0.3125
v 0.03125 -0.375 -0.3125
v 0.03125 -0.375 0.0625
v 0.03125 -0.5 -0.3125
v 0.03125 -0.5 0.0625
vt 0.6328125 0.53125
vt 0.6796875 0.53125
vt 0.6796875 0.484375
vt 0.6328125 0.484375
vt 0.4921875 0.53125
vt 0.6328125 0.53125
vt 0.6328125 0.484375
vt 0.4921875 0.484375
vt 0.4453125 0.53125
vt 0.4921875 0.53125
vt 0.4921875 0.484375
vt 0.4453125 0.484375
vt 0.6328125 0.671875
vt 0.4921875 0.671875
vt 0.4921875 0.625
vt 0.6328125 0.625
vt 0.6328125 0.578125
vt 0.6328125 0.625
vt 0.4921875 0.625
vt 0.4921875 0.578125
vt 0.4921875 0.53125
vt 0.4921875 0.578125
vt 0.6328125 0.578125
vt 0.6328125 0.53125
vn 0 0 -1
vn 1 0 0
vn 0 0 1
vn -1 0 0
vn 0 1 0
vn 0 -1 0
usemtl m_e0d20437-4cfb-e04e-0661-a9470622064c
f 36/100/25 39/99/25 37/98/25 34/97/25
f 35/104/26 36/103/26 34/102/26 33/101/26
f 40/108/27 35/107/27 33/106/27 38/105/27
f 39/112/28 40/111/28 38/110/28 37/109/28
f 38/116/29 33/115/29 34/114/29 37/113/29
f 39/120/30 36/119/30 35/118/30 40/117/30
o cube
v -0.03125 -0.375 0.0625
v -0.03125 -0.375 -0.3125
v -0.03125 -0.5 0.0625
v -0.03125 -0.5 -0.3125
v -0.15625 -0.375 -0.3125
v -0.15625 -0.375 0.0625
v -0.15625 -0.5 -0.3125
v -0.15625 -0.5 0.0625
vt 0.6953125 0.53125
vt 0.7421875 0.53125
vt 0.7421875 0.484375
vt 0.6953125 0.484375
vt 0.8828125 0.53125
vt 0.7421875 0.53125
vt 0.7421875 0.484375
vt 0.8828125 0.484375
vt 0.8828125 0.53125
vt 0.9296875 0.53125
vt 0.9296875 0.484375
vt 0.8828125 0.484375
vt 0.7421875 0.671875
vt 0.8828125 0.671875
vt 0.8828125 0.625
vt 0.7421875 0.625
vt 0.7421875 0.578125
vt 0.7421875 0.625
vt 0.8828125 0.625
vt 0.8828125 0.578125
vt 0.8828125 0.578125
vt 0.8828125 0.53125
vt 0.7421875 0.53125
vt 0.7421875 0.578125
vn 0 0 -1
vn 1 0 0
vn 0 0 1
vn -1 0 0
vn 0 1 0
vn 0 -1 0
usemtl m_e0d20437-4cfb-e04e-0661-a9470622064c
f 44/124/31 47/123/31 45/122/31 42/121/31
f 43/128/32 44/127/32 42/126/32 41/125/32
f 48/132/33 43/131/33 41/130/33 46/129/33
f 47/136/34 48/135/34 46/134/34 45/133/34
f 46/140/35 41/139/35 42/138/35 45/137/35
f 47/144/36 44/143/36 43/142/36 48/141/36
o cube
v 0.09375 -0.14258484949690292 -0.12603567520796105
v 0.09375 -0.14258484949690292 -0.12603567520796105
v 0.09375 -0.32990639104350106 -0.13421431033896158
v 0.09375 -0.32990639104350106 -0.13421431033896158
v -0.09375 -0.14258484949690292 -0.12603567520796105
v -0.09375 -0.14258484949690292 -0.12603567520796105
v -0.09375 -0.32990639104350106 -0.13421431033896158
v -0.09375 -0.32990639104350106 -0.13421431033896158
vt 0 1
vt 0 1
vt 0 0.96875
vt 0 0.96875
vt 0.0703125 0.296875
vt 0 0.296875
vt 0 0.2265625
vt 0.0703125 0.2265625
vt 0 1
vt 0 1
vt 0 0.96875
vt 0 0.96875
vt 0 1
vt 0.03125 1
vt 0.03125 1
vt 0 1
vt 0 1
vt 0.03125 1
vt 0.03125 1
vt 0 1
vn 1 0 0
vn 0 -0.043619387365336 0.9990482215818578
vn -1 0 0
vn 0 0.9990482215818578 0.043619387365336
vn 0 -0.9990482215818578 -0.043619387365336
usemtl none
f 51/148/37 52/147/37 50/146/37 49/145/37
usemtl m_e0d20437-4cfb-e04e-0661-a9470622064c
f 56/152/38 51/151/38 49/150/38 54/149/38
usemtl none
f 55/156/39 56/155/39 54/154/39 53/153/39
f 54/160/40 49/159/40 50/158/40 53/157/40
f 55/164/41 52/163/41 51/162/41 56/161/41
o cube
v 0.3125 0.39372218236399004 0.07337052364224295
v 0.3125 0.39372218236399004 0.07337052364224295
v 0.3125 0.024419274984412098 0.13848859026734173
v 0.3125 0.024419274984412098 0.13848859026734173
v -0.3125 0.39372218236399004 0.07337052364224295
v -0.3125 0.39372218236399004 0.07337052364224295
v -0.3125 0.024419274984412098 0.13848859026734173
v -0.3125 0.024419274984412098 0.13848859026734173
vt 0 0.1796875
vt 0.234375 0.1796875
vt 0.234375 0.0390625
vt 0 0.0390625
vt 0 1
vt 0 1
vt 0 0.953125
vt 0 0.953125
vt 0 1
vt 0 1
vt 0 0.953125
vt 0 0.953125
vt 0 1
vt 0.078125 1
vt 0.078125 1
vt 0 1
vt 0 1
vt 0.078125 1
vt 0.078125 1
vt 0 1
vn 0 -0.17364817766693033 -0.984807753012208
vn 1 0 0
vn -1 0 0
vn 0 0.984807753012208 -0.17364817766693033
vn 0 -0.984807753012208 0.17364817766693033
usemtl m_e0d20437-4cfb-e04e-0661-a9470622064c
f 60/168/42 63/167/42 61/166/42 58/165/42
usemtl none
f 59/172/43 60/171/43 58/170/43 57/169/43
f 63/176/44 64/175/44 62/174/44 61/173/44
f 62/180/45 57/179/45 58/178/45 61/177/45
f 63/184/46 60/183/46 59/182/46 64/181/46
o cube
v -0.19687500000000002 0 -0.0625
v -0.19687500000000002 0 -0.1875
v -0.19687500000000002 -0.25 -0.0625
v -0.19687500000000002 -0.25 -0.1875
v -0.19687500000000002 0 -0.1875
v -0.19687500000000002 0 -0.0625
v -0.19687500000000002 -0.25 -0.1875
v -0.19687500000000002 -0.25 -0.0625
vt 0 1
vt 0 1
vt 0 0.96875
vt 0 0.96875
vt 0 1
vt 0 1
vt 0 0.96875
vt 0 0.96875
vt 0.703125 0.8515625
vt 0.75 0.8515625
vt 0.75 0.7578125
vt 0.703125 0.7578125
vt 0 1
vt 0 1
vt 0 0.984375
vt 0 0.984375
vt 0 1
vt 0 1
vt 0 0.984375
vt 0 0.984375
vn 0 0 -1
vn 0 0 1
vn -1 0 0
vn 0 1 0
vn 0 -1 0
usemtl none
f 68/188/47 71/187/47 69/186/47 66/185/47
f 72/192/48 67/191/48 65/190/48 70/189/48
usemtl m_e0d20437-4cfb-e04e-0661-a9470622064c
f 71/196/49 72/195/49 70/194/49 69/193/49
usemtl none
f 70/200/50 65/199/50 66/198/50 69/197/50
f 71/204/51 68/203/51 67/202/51 72/201/51
o cube
v 0.19687500000000002 0 -0.0625
v 0.19687500000000002 0 -0.1875
v 0.19687500000000002 -0.25 -0.0625
v 0.19687500000000002 -0.25 -0.1875
v 0.19687500000000002 0 -0.1875
v 0.19687500000000002 0 -0.0625
v 0.19687500000000002 -0.25 -0.1875
v 0.19687500000000002 -0.25 -0.0625
vt 0 1
vt 0 1
vt 0 0.96875
vt 0 0.96875
vt 0.640625 0.8515625
vt 0.6875 0.8515625
vt 0.6875 0.7578125
vt 0.640625 0.7578125
vt 0 1
vt 0 1
vt 0 0.96875
vt 0 0.96875
vt 0 1
vt 0 1
vt 0 0.984375
vt 0 0.984375
vt 0 1
vt 0 1
vt 0 0.984375
vt 0 0.984375
vn 0 0 -1
vn 1 0 0
vn 0 0 1
vn 0 1 0
vn 0 -1 0
usemtl none
f 76/208/52 79/207/52 77/206/52 74/205/52
usemtl m_e0d20437-4cfb-e04e-0661-a9470622064c
f 75/212/53 76/211/53 74/210/53 73/209/53
usemtl none
f 80/216/54 75/215/54 73/214/54 78/213/54
f 78/220/55 73/219/55 74/218/55 77/217/55
f 79/224/56 76/223/56 75/222/56 80/221/56
o head
v 0.1875 0.234375 -0.21874999999999994
v -0.18749999999999994 0.234375 -0.21875000000000006
v 0.1875 -0.140625 -0.21874999999999994
v -0.18749999999999994 -0.140625 -0.21875000000000006
v -0.1875 0.234375 0.15625
v 0.1875 0.234375 0.15625
v -0.1875 -0.140625 0.15625
v 0.1875 -0.140625 0.15625
vt 0.140625 1
vt 0.28125 1
vt 0.28125 0.859375
vt 0.140625 0.859375
vt 0 1
vt 0.140625 1
vt 0.140625 0.859375
vt 0 0.859375
vt 0.421875 1
vt 0.5625 1
vt 0.5625 0.859375
vt 0.421875 0.859375
vt 0.28125 1
vt 0.421875 1
vt 0.421875 0.859375
vt 0.28125 0.859375
vt 0.5625 1
vt 0.703125 1
vt 0.703125 0.859375
vt 0.5625 0.859375
vt 0.703125 0.859375
vt 0.703125 1
vt 0.84375 1
vt 0.84375 0.859375
vn -1 0 -2.220446049250313e-16
vn 2.220446049250313e-16 0 -1
vn 1 0 2.220446049250313e-16
vn -2.220446049250313e-16 0 1
vn 0 1 0
vn 0 -1 0
usemtl m_e0d20437-4cfb-e04e-0661-a9470622064c
f 84/228/57 87/227/57 85/226/57 82/225/57
f 83/232/58 84/231/58 82/230/58 81/229/58
f 88/236/59 83/235/59 81/234/59 86/233/59
f 87/240/60 88/239/60 86/238/60 85/237/60
f 86/244/61 81/243/61 82/242/61 85/241/61
f 87/248/62 84/247/62 83/246/62 88/245/62
o fronthairs
v 0.1875 0.234375 -0.21875
v 0.1875 0.234375 -0.23750000000000004
v 0.1875 -0.140625 -0.21875
v 0.1875 -0.140625 -0.23750000000000004
v -0.1875 0.234375 -0.23750000000000004
v -0.1875 0.234375 -0.21875
v -0.1875 -0.140625 -0.23750000000000004
v -0.1875 -0.140625 -0.21875
vt 0.0078125 0.8515625
vt 0.1484375 0.8515625
vt 0.1484375 0.7109375
vt 0.0078125 0.7109375
vt 0.1484375 0.8515625
vt 0.15625 0.8515625
vt 0.15625 0.7109375
vt 0.1484375 0.7109375
vt 0 0.8515625
vt 0.0078125 0.8515625
vt 0.0078125 0.7109375
vt 0 0.7109375
vt 0.0078125 0.859375
vt 0.1484375 0.859375
vt 0.1484375 0.8515625
vt 0.0078125 0.8515625
vt 0.0078125 0.7109375
vt 0.1484375 0.7109375
vt 0.1484375 0.703125
vt 0.0078125 0.703125
vn 0 0 -1
vn 1 0 0
vn -1 0 0
vn 0 1 0
vn 0 -1 0
usemtl m_e0d20437-4cfb-e04e-0661-a9470622064c
f 92/252/63 95/251/63 93/250/63 90/249/63
f 91/256/64 92/255/64 90/254/64 89/253/64
f 95/260/65 96/259/65 94/258/65 93/257/65
f 94/264/66 89/263/66 90/262/66 93/261/66
f 95/268/67 92/267/67 91/266/67 96/265/67
o backhairs
v 0.1875 0.234375 0.17500000000000004
v 0.1875 0.234375 0.15625
v 0.1875 -0.140625 0.17500000000000004
v 0.1875 -0.140625 0.15625
v -0.1875 0.234375 0.15625
v -0.1875 0.234375 0.17500000000000004
v -0.1875 -0.140625 0.15625
v -0.1875 -0.140625 0.17500000000000004
vt 0.3125 0.8515625
vt 0.3203125 0.8515625
vt 0.3203125 0.7109375
vt 0.3125 0.7109375
vt 0.3203125 0.8515625
vt 0.4609375 0.8515625
vt 0.4609375 0.7109375
vt 0.3203125 0.7109375
vt 0.4609375 0.8515625
vt 0.46875 0.8515625
vt 0.46875 0.7109375
vt 0.4609375 0.7109375
vt 0.3203125 0.859375
vt 0.4609375 0.859375
vt 0.4609375 0.8515625
vt 0.3203125 0.8515625
vt 0.3203125 0.7109375
vt 0.4609375 0.7109375
vt 0.4609375 0.703125
vt 0.3203125 0.703125
vn 1 0 0
vn 0 0 1
vn -1 0 0
vn 0 1 0
vn 0 -1 0
usemtl m_e0d20437-4cfb-e04e-0661-a9470622064c
f 99/272/68 100/271/68 98/270/68 97/269/68
f 104/276/69 99/275/69 97/274/69 102/273/69
f 103/280/70 104/279/70 102/278/70 101/277/70
f 102/284/71 97/283/71 98/282/71 101/281/71
f 103/288/72 100/287/72 99/286/72 104/285/72
o sidehairs
v -0.18749999999999994 0.234375 -0.21875000000000006
v -0.20624999999999993 0.234375 -0.21875000000000006
v -0.18749999999999994 -0.140625 -0.21875000000000006
v -0.20624999999999993 -0.140625 -0.21875000000000006
v -0.20625000000000004 0.234375 0.15625
v -0.1875 0.234375 0.15625
v -0.20625000000000004 -0.140625 0.15625
v -0.1875 -0.140625 0.15625
vt 0.1640625 0.8515625
vt 0.3046875 0.8515625
vt 0.3046875 0.7109375
vt 0.1640625 0.7109375
vt 0.15625 0.8515625
vt 0.1640625 0.8515625
vt 0.1640625 0.7109375
vt 0.15625 0.7109375
vt 0.3046875 0.8515625
vt 0.3125 0.8515625
vt 0.3125 0.7109375
vt 0.3046875 0.7109375
vt 0.1640625 0.859375
vt 0.3046875 0.859375
vt 0.3046875 0.8515625
vt 0.1640625 0.8515625
vt 0.3046875 0.7109375
vt 0.1640625 0.7109375
vt 0.1640625 0.703125
vt 0.3046875 0.703125
vn -1 0 -2.220446049250313e-16
vn 2.220446049250313e-16 0 -1
vn -2.220446049250313e-16 0 1
vn 0 1 0
vn 0 -1 0
usemtl m_e0d20437-4cfb-e04e-0661-a9470622064c
f 108/292/73 111/291/73 109/290/73 106/289/73
f 107/296/74 108/295/74 106/294/74 105/293/74
f 111/300/75 112/299/75 110/298/75 109/297/75
f 110/304/76 105/303/76 106/302/76 109/301/76
f 111/308/77 108/307/77 107/306/77 112/305/77
o sidelefthairs
v 0.20625000000000004 0.234375 -0.21874999999999994
v 0.1875 0.234375 -0.21874999999999994
v 0.20625000000000004 -0.140625 -0.21874999999999994
v 0.1875 -0.140625 -0.21874999999999994
v 0.1875 0.234375 0.15625
v 0.20624999999999993 0.234375 0.15625
v 0.1875 -0.140625 0.15625
v 0.20624999999999993 -0.140625 0.15625
vt 0.6171875 0.8515625
vt 0.625 0.8515625
vt 0.625 0.7109375
vt 0.6171875 0.7109375
vt 0.4765625 0.8515625
vt 0.6171875 0.8515625
vt 0.6171875 0.7109375
vt 0.4765625 0.7109375
vt 0.46875 0.8515625
vt 0.4765625 0.8515625
vt 0.4765625 0.7109375
vt 0.46875 0.7109375
vt 0.4765625 0.859375
vt 0.6171875 0.859375
vt 0.6171875 0.8515625
vt 0.4765625 0.8515625
vt 0.4765625 0.7109375
vt 0.6171875 0.7109375
vt 0.6171875 0.703125
vt 0.4765625 0.703125
vn 2.220446049250313e-16 0 -1
vn 1 0 2.220446049250313e-16
vn -2.220446049250313e-16 0 1
vn 0 1 0
vn 0 -1 0
usemtl m_e0d20437-4cfb-e04e-0661-a9470622064c
f 115/312/78 116/311/78 114/310/78 113/309/78
f 120/316/79 115/315/79 113/314/79 118/313/79
f 119/320/80 120/319/80 118/318/80 117/317/80
f 118/324/81 113/323/81 114/322/81 117/321/81
f 119/328/82 116/327/82 115/326/82 120/325/82
o tophairs
v 0.1875 0.25312500000000004 -0.21874999999999978
v 0.1875 0.234375 -0.21874999999999978
v 0.1875 0.25312500000000004 0.15625000000000022
v 0.1875 0.234375 0.15625000000000022
v -0.1875 0.234375 -0.21874999999999978
v -0.1875 0.25312500000000004 -0.21874999999999978
v -0.1875 0.234375 0.15625000000000022
v -0.1875 0.25312500000000004 0.15625000000000022
vt 0 1
vt 0 1
vt 0 1
vt 0 1
vt 0 0.6953125
vt 0.0078125 0.6953125
vt 0.0078125 0.5546875
vt 0 0.5546875
vt 0.0078125 0.6953125
vt 0.1484375 0.6953125
vt 0.1484375 0.5546875
vt 0.0078125 0.5546875
vt 0.1484375 0.6953125
vt 0.15625 0.6953125
vt 0.15625 0.5546875
vt 0.1484375 0.5546875
vt 0.0078125 0.5546875
vt 0.1484375 0.5546875
vt 0.1484375 0.546875
vt 0.0078125 0.546875
vt 0.0078125 0.703125
vt 0.1484375 0.703125
vt 0.1484375 0.6953125
vt 0.0078125 0.6953125
vn 0 -1 -2.220446049250313e-16
vn 1 0 0
vn 0 1 2.220446049250313e-16
vn -1 0 0
vn 0 2.220446049250313e-16 -1
vn 0 -2.220446049250313e-16 1
usemtl m_e0d20437-4cfb-e04e-0661-a9470622064c
f 124/332/83 127/331/83 125/330/83 122/329/83
f 123/336/84 124/335/84 122/334/84 121/333/84
f 128/340/85 123/339/85 121/338/85 126/337/85
f 127/344/86 128/343/86 126/342/86 125/341/86
f 126/348/87 121/347/87 122/346/87 125/345/87
f 127/352/88 124/351/88 123/350/88 128/349/88